# xmcd CD database file
#
# Track frame offsets:
#	150
#	21942
#	41613
#	53430
#	66707
#	79839
#	98633
#	112497
#	126431
#	138725
#	151551
#	164624
#	172424
#	183740
#	192219
#	204222
#	228241
#	239967
#
# Disc length: 3350 seconds
#
# Revision: 0
# Processed by: cddbd v1.5.1PL0 Copyright (c) Steve Scherf et al.
# Submitted via: CDex 1.51
#
DISCID=0f0d1412
DTITLE=Juke Boy Bonner - Nowhere To Run
DYEAR=2000
DGENRE=Blues
TTITLE0=Life's Highway
TTITLE1=Gimme Some Boone's Farm
TTITLE2=Grandmas Will Dog You Around
TTITLE3=Carried To The Cleaners And Hung Out To Dry
TTITLE4=Nowhere To Run
TTITLE5=Dust My Broom
TTITLE6=Live My Troubles On Down
TTITLE7=Who Was That A While Ago
TTITLE8=Disappearing Act
TTITLE9=The Best Way To Lose The Blues
TTITLE10=It's A Shame, Shame, Shame
TTITLE11=Loving Arms
TTITLE12=Loving Arms
TTITLE13=A Distant Feel
TTITLE14=What'll I Tell The Children
TTITLE15=The Winds Came
TTITLE16=Nothing But A Child
TTITLE17=Six Over Ten
EXTD=YEAR: 2000
EXTT0=
EXTT1=
EXTT2=
EXTT3=
EXTT4=
EXTT5=
EXTT6=
EXTT7=
EXTT8=
EXTT9=
EXTT10=
EXTT11=
EXTT12=
EXTT13=
EXTT14=
EXTT15=
EXTT16=
EXTT17=
PLAYORDER=
